<svg width="778" height="194" viewBox="0 0 778 194" fill="none" xmlns="http://www.w3.org/2000/svg">
<path fill-rule="evenodd" clip-rule="evenodd" d="M87.7463 183.859C133.174 183.859 170 185.51 170 187.547C170 189.584 133.174 191.235 87.7463 191.235C42.3191 191.235 5.49316 189.584 5.49316 187.547C5.49316 185.51 42.3191 183.859 87.7463 183.859Z" fill="#E6E6E6"/>
<path fill-rule="evenodd" clip-rule="evenodd" d="M19.5015 116.99L23.509 96.9539L0 108.708L19.5015 116.99Z" fill="#FFD178"/>
<path fill-rule="evenodd" clip-rule="evenodd" d="M23.5091 96.9539L19.5015 116.99L64.0082 86.3896L23.5091 96.9539Z" fill="#DDAC4F"/>
<path fill-rule="evenodd" clip-rule="evenodd" d="M64.0082 86.3896L19.5015 116.99L21.1404 151.202L42.7433 160.535L64.0082 86.3896Z" fill="#F0C063"/>
<path fill-rule="evenodd" clip-rule="evenodd" d="M63.4304 88.4004L54.3354 120.115L99.5419 77.12L63.4304 88.4004Z" fill="#FFE58C"/>
<path fill-rule="evenodd" clip-rule="evenodd" d="M99.5419 77.1199L54.3354 120.115L76.6709 145.842L102.394 109.352L99.5419 77.1199Z" fill="#FFD178"/>
<path fill-rule="evenodd" clip-rule="evenodd" d="M73.4236 142.099L54.3362 120.115L45.7856 149.929L73.4236 142.099Z" fill="#FFE58C"/>
<path fill-rule="evenodd" clip-rule="evenodd" d="M40.3956 159.521L23.4194 152.187L31.3753 189.227L40.3956 159.521Z" fill="#C8973C"/>
<path fill-rule="evenodd" clip-rule="evenodd" d="M44.3384 154.972L55.028 189.227L61.61 145.446L45.7851 149.929L44.3384 154.972Z" fill="#A06F14"/>
<path fill-rule="evenodd" clip-rule="evenodd" d="M76.6709 145.842L105.435 143.735L102.394 109.352L76.6709 145.842Z" fill="#F0C063"/>
<path fill-rule="evenodd" clip-rule="evenodd" d="M102.394 109.352L105.742 147.205L110.733 189.922L137.18 104.793L99.542 77.1199L102.394 109.352Z" fill="#F0C063"/>
<path fill-rule="evenodd" clip-rule="evenodd" d="M137.18 104.793L122.834 150.97L140.933 189.227L137.18 104.793Z" fill="#A06F14"/>
<path fill-rule="evenodd" clip-rule="evenodd" d="M99.542 77.12L137.18 104.793L129.362 61.063L110.579 55.1379L99.542 77.12Z" fill="#DDAC4F"/>
<path fill-rule="evenodd" clip-rule="evenodd" d="M99.5422 77.1199L110.579 55.1378L96.2231 39.6023L99.5422 77.1199Z" fill="#F0C063"/>
<path fill-rule="evenodd" clip-rule="evenodd" d="M96.2231 39.6023L110.579 55.1377L132.446 38.7833L144.839 29.5157L96.2231 39.6023Z" fill="#FFD178"/>
<path fill-rule="evenodd" clip-rule="evenodd" d="M132.446 38.7834L110.579 55.1378L129.362 61.0629L147.164 45.5167L132.446 38.7834Z" fill="#F0C063"/>
<path fill-rule="evenodd" clip-rule="evenodd" d="M132.446 38.7833L147.164 45.5166L144.839 29.5157L132.446 38.7833Z" fill="#FFE58C"/>
<path fill-rule="evenodd" clip-rule="evenodd" d="M96.2231 39.6025L115.399 27.8342L124.771 16.3848L105.138 20.5976L96.2231 39.6025Z" fill="#C8973C"/>
<path fill-rule="evenodd" clip-rule="evenodd" d="M105.139 20.5974L124.771 16.3847L125.325 0.747507L105.139 20.5974Z" fill="#F0C063"/>
<path fill-rule="evenodd" clip-rule="evenodd" d="M19.5015 116.99L54.3357 120.115L64.0082 86.3896L19.5015 116.99Z" fill="#FFD178"/>
<path fill-rule="evenodd" clip-rule="evenodd" d="M67.4968 87.1301L63.4307 88.4005L64.0082 86.3898L67.4968 87.1301Z" fill="#6E4F45"/>
<path fill-rule="evenodd" clip-rule="evenodd" d="M125.318 156.219L137.18 104.793L122.834 150.97L125.318 156.219Z" fill="#6E4F45"/>
<path fill-rule="evenodd" clip-rule="evenodd" d="M96.2231 39.6025L144.839 29.516L115.399 27.8342L96.2231 39.6025Z" fill="#DDAC4F"/>
<path fill-rule="evenodd" clip-rule="evenodd" d="M54.3357 120.115L19.5015 116.99L19.584 118.718L54.3357 120.115Z" fill="#FFFA9E"/>
<path fill-rule="evenodd" clip-rule="evenodd" d="M24.145 155.567L23.4194 152.187L40.3955 159.521L24.145 155.567Z" fill="#6E4F45"/>
<path fill-rule="evenodd" clip-rule="evenodd" d="M61.2333 147.953L61.6104 145.446L46.0898 149.842L61.2333 147.953Z" fill="#6E4F45"/>
<path fill-rule="evenodd" clip-rule="evenodd" d="M99.5823 78.0538L99.542 77.12L137.18 104.793L99.5823 78.0538Z" fill="#FFFA9E"/>
<path fill-rule="evenodd" clip-rule="evenodd" d="M110.579 55.1377L110.129 54.6499L99.542 77.1198L110.579 55.1377Z" fill="#FFFA9E"/>
<path fill-rule="evenodd" clip-rule="evenodd" d="M101.007 111.319L76.6713 145.842L75.564 144.566L101.007 111.319Z" fill="#FFFA9E"/>
<path fill-rule="evenodd" clip-rule="evenodd" d="M63.4304 88.4004L54.3354 120.115L57.1503 117.437L67.4965 87.13L63.4304 88.4004Z" fill="#AE885B"/>
<path fill-rule="evenodd" clip-rule="evenodd" d="M57.1504 117.437L54.3354 120.115L55.7003 121.687L57.1504 117.437Z" fill="#AE9164"/>
<path fill-rule="evenodd" clip-rule="evenodd" d="M55.7009 121.687L54.3362 120.115L45.7856 149.928L46.0899 149.842L54.8883 124.067L55.7009 121.687Z" fill="#AE885B"/>
<path fill-rule="evenodd" clip-rule="evenodd" d="M55.7008 121.687L54.8882 124.067L73.4235 142.1L55.7008 121.687Z" fill="#AE885B"/>
<path fill-rule="evenodd" clip-rule="evenodd" d="M101.006 111.32L102.404 143.957L105.435 143.735L102.394 109.352L101.006 111.32Z" fill="#A78152"/>
<path fill-rule="evenodd" clip-rule="evenodd" d="M101.007 111.319L102.394 109.352L99.6275 78.0864L99.5825 78.0543L101.007 111.319Z" fill="#AE9164"/>
<path d="M229.64 129.292H196.28L190.76 145.252H173.12L203.24 61.3724H222.8L252.92 145.252H235.16L229.64 129.292ZM225.08 115.852L212.96 80.8124L200.84 115.852H225.08ZM277.978 56.4524V145.252H261.178V56.4524H277.978ZM308.377 88.3724C310.537 85.3324 313.497 82.8124 317.257 80.8124C321.097 78.7324 325.457 77.6924 330.337 77.6924C336.017 77.6924 341.137 79.0924 345.697 81.8924C350.337 84.6924 353.977 88.6924 356.617 93.8924C359.337 99.0124 360.697 104.972 360.697 111.772C360.697 118.572 359.337 124.612 356.617 129.892C353.977 135.092 350.337 139.132 345.697 142.012C341.137 144.892 336.017 146.332 330.337 146.332C325.457 146.332 321.137 145.332 317.377 143.332C313.697 141.332 310.697 138.812 308.377 135.772V176.932H291.577V78.7724H308.377V88.3724ZM343.537 111.772C343.537 107.772 342.697 104.332 341.017 101.452C339.417 98.4924 337.257 96.2524 334.537 94.7324C331.897 93.2124 329.017 92.4524 325.897 92.4524C322.857 92.4524 319.977 93.2524 317.257 94.8524C314.617 96.3724 312.457 98.6124 310.777 101.572C309.177 104.532 308.377 108.012 308.377 112.012C308.377 116.012 309.177 119.492 310.777 122.452C312.457 125.412 314.617 127.692 317.257 129.292C319.977 130.812 322.857 131.572 325.897 131.572C329.017 131.572 331.897 130.772 334.537 129.172C337.257 127.572 339.417 125.292 341.017 122.332C342.697 119.372 343.537 115.852 343.537 111.772ZM407.345 77.8124C412.385 77.8124 416.865 78.9324 420.785 81.1724C424.705 83.3324 427.745 86.5724 429.905 90.8924C432.145 95.1324 433.265 100.252 433.265 106.252V145.252H416.465V108.532C416.465 103.252 415.145 99.2124 412.505 96.4124C409.865 93.5324 406.265 92.0924 401.705 92.0924C397.065 92.0924 393.385 93.5324 390.665 96.4124C388.025 99.2124 386.705 103.252 386.705 108.532V145.252H369.905V56.4524H386.705V87.0524C388.865 84.1724 391.745 81.9324 395.345 80.3324C398.945 78.6524 402.945 77.8124 407.345 77.8124ZM463.041 88.3724C465.201 85.3324 468.161 82.8124 471.921 80.8124C475.761 78.7324 480.121 77.6924 485.001 77.6924C490.681 77.6924 495.801 79.0924 500.361 81.8924C505.001 84.6924 508.641 88.6924 511.281 93.8924C514.001 99.0124 515.361 104.972 515.361 111.772C515.361 118.572 514.001 124.612 511.281 129.892C508.641 135.092 505.001 139.132 500.361 142.012C495.801 144.892 490.681 146.332 485.001 146.332C480.121 146.332 475.801 145.332 472.041 143.332C468.361 141.332 465.361 138.812 463.041 135.772V176.932H446.241V78.7724H463.041V88.3724ZM498.201 111.772C498.201 107.772 497.361 104.332 495.681 101.452C494.081 98.4924 491.921 96.2524 489.201 94.7324C486.561 93.2124 483.681 92.4524 480.561 92.4524C477.521 92.4524 474.641 93.2524 471.921 94.8524C469.281 96.3724 467.121 98.6124 465.441 101.572C463.841 104.532 463.041 108.012 463.041 112.012C463.041 116.012 463.841 119.492 465.441 122.452C467.121 125.412 469.281 127.692 471.921 129.292C474.641 130.812 477.521 131.572 480.561 131.572C483.681 131.572 486.561 130.772 489.201 129.172C491.921 127.572 494.081 125.292 495.681 122.332C497.361 119.372 498.201 115.852 498.201 111.772ZM520.249 111.772C520.249 105.052 521.569 99.0924 524.209 93.8924C526.929 88.6924 530.569 84.6924 535.129 81.8924C539.769 79.0924 544.929 77.6924 550.609 77.6924C555.569 77.6924 559.889 78.6924 563.569 80.6924C567.329 82.6924 570.329 85.2124 572.569 88.2524V78.7724H589.489V145.252H572.569V135.532C570.409 138.652 567.409 141.252 563.569 143.332C559.809 145.332 555.449 146.332 550.489 146.332C544.889 146.332 539.769 144.892 535.129 142.012C530.569 139.132 526.929 135.092 524.209 129.892C521.569 124.612 520.249 118.572 520.249 111.772ZM572.569 112.012C572.569 107.932 571.769 104.452 570.169 101.572C568.569 98.6124 566.409 96.3724 563.689 94.8524C560.969 93.2524 558.049 92.4524 554.929 92.4524C551.809 92.4524 548.929 93.2124 546.289 94.7324C543.649 96.2524 541.489 98.4924 539.809 101.452C538.209 104.332 537.409 107.772 537.409 111.772C537.409 115.772 538.209 119.292 539.809 122.332C541.489 125.292 543.649 127.572 546.289 129.172C549.009 130.772 551.889 131.572 554.929 131.572C558.049 131.572 560.969 130.812 563.689 129.292C566.409 127.692 568.569 125.452 570.169 122.572C571.769 119.612 572.569 116.092 572.569 112.012ZM598.577 112.012C598.577 105.132 599.977 99.1324 602.777 94.0124C605.577 88.8124 609.457 84.8124 614.417 82.0124C619.377 79.1324 625.057 77.6924 631.457 77.6924C639.697 77.6924 646.497 79.7724 651.857 83.9324C657.297 88.0124 660.937 93.7724 662.777 101.212H644.657C643.697 98.3324 642.057 96.0924 639.737 94.4924C637.497 92.8124 634.697 91.9724 631.337 91.9724C626.537 91.9724 622.737 93.7324 619.937 97.2524C617.137 100.692 615.737 105.612 615.737 112.012C615.737 118.332 617.137 123.252 619.937 126.772C622.737 130.212 626.537 131.932 631.337 131.932C638.137 131.932 642.577 128.892 644.657 122.812H662.777C660.937 130.012 657.297 135.732 651.857 139.972C646.417 144.212 639.617 146.332 631.457 146.332C625.057 146.332 619.377 144.932 614.417 142.132C609.457 139.252 605.577 135.252 602.777 130.132C599.977 124.932 598.577 118.892 598.577 112.012ZM667.765 111.772C667.765 105.052 669.085 99.0924 671.725 93.8924C674.445 88.6924 678.085 84.6924 682.645 81.8924C687.285 79.0924 692.445 77.6924 698.125 77.6924C703.085 77.6924 707.405 78.6924 711.085 80.6924C714.845 82.6924 717.845 85.2124 720.085 88.2524V78.7724H737.005V145.252H720.085V135.532C717.925 138.652 714.925 141.252 711.085 143.332C707.325 145.332 702.965 146.332 698.005 146.332C692.405 146.332 687.285 144.892 682.645 142.012C678.085 139.132 674.445 135.092 671.725 129.892C669.085 124.612 667.765 118.572 667.765 111.772ZM720.085 112.012C720.085 107.932 719.285 104.452 717.685 101.572C716.085 98.6124 713.925 96.3724 711.205 94.8524C708.485 93.2524 705.565 92.4524 702.445 92.4524C699.325 92.4524 696.445 93.2124 693.805 94.7324C691.165 96.2524 689.005 98.4924 687.325 101.452C685.725 104.332 684.925 107.772 684.925 111.772C684.925 115.772 685.725 119.292 687.325 122.332C689.005 125.292 691.165 127.572 693.805 129.172C696.525 130.772 699.405 131.572 702.445 131.572C705.565 131.572 708.485 130.812 711.205 129.292C713.925 127.692 716.085 125.452 717.685 122.572C719.285 119.612 720.085 116.092 720.085 112.012Z" fill="#1E293B"/>
<path d="M756.056 78.6401V81.3521H751.592V95.3921H748.232V81.3521H743.768V78.6401H756.056ZM776.172 78.6401V95.3921H772.812V84.4961L768.324 95.3921H765.78L761.268 84.4961V95.3921H757.908V78.6401H761.724L767.052 91.0961L772.38 78.6401H776.172Z" fill="#1E293B"/>
</svg>
