<svg width="25" height="26" viewBox="0 0 25 26" fill="none" xmlns="http://www.w3.org/2000/svg">
<path d="M8.49121 20.0496C8.49121 20.1472 8.37891 20.2253 8.2373 20.2253C8.07617 20.24 7.96387 20.1619 7.96387 20.0496C7.96387 19.9519 8.07617 19.8738 8.21777 19.8738C8.36426 19.8591 8.49121 19.9373 8.49121 20.0496ZM6.97266 19.8298C6.93848 19.9275 7.03613 20.0398 7.18262 20.0691C7.30957 20.1179 7.45605 20.0691 7.48535 19.9714C7.51465 19.8738 7.42188 19.7615 7.27539 19.7175C7.14844 19.6833 7.00684 19.7322 6.97266 19.8298ZM9.13086 19.7468C8.98926 19.781 8.8916 19.8738 8.90625 19.9861C8.9209 20.0837 9.04785 20.1472 9.19434 20.113C9.33594 20.0789 9.43359 19.9861 9.41895 19.8884C9.4043 19.7957 9.27246 19.7322 9.13086 19.7468ZM12.3438 1.03589C5.57129 1.03589 0.390625 6.17749 0.390625 12.95C0.390625 18.365 3.79883 22.9988 8.66699 24.6296C9.29199 24.7419 9.51172 24.3562 9.51172 24.0388C9.51172 23.7361 9.49707 22.0662 9.49707 21.0408C9.49707 21.0408 6.0791 21.7732 5.36133 19.5857C5.36133 19.5857 4.80469 18.1648 4.00391 17.7986C4.00391 17.7986 2.88574 17.032 4.08203 17.0466C4.08203 17.0466 5.29785 17.1443 5.9668 18.3064C7.03613 20.1912 8.82813 19.6492 9.52637 19.3269C9.63867 18.5457 9.95605 18.0037 10.3076 17.6814C7.57813 17.3787 4.82422 16.9832 4.82422 12.2859C4.82422 10.9431 5.19531 10.2693 5.97656 9.40991C5.84961 9.09253 5.43457 7.78394 6.10352 6.09448C7.12402 5.7771 9.47266 7.41284 9.47266 7.41284C10.4492 7.1394 11.499 6.9978 12.5391 6.9978C13.5791 6.9978 14.6289 7.1394 15.6055 7.41284C15.6055 7.41284 17.9541 5.77222 18.9746 6.09448C19.6436 7.78882 19.2285 9.09253 19.1016 9.40991C19.8828 10.2742 20.3613 10.948 20.3613 12.2859C20.3613 16.9978 17.4854 17.3738 14.7559 17.6814C15.2051 18.0671 15.5859 18.7996 15.5859 19.947C15.5859 21.5925 15.5713 23.6287 15.5713 24.0291C15.5713 24.3464 15.7959 24.7322 16.416 24.6199C21.2988 22.9988 24.6094 18.365 24.6094 12.95C24.6094 6.17749 19.1162 1.03589 12.3438 1.03589ZM5.13672 17.8767C5.07324 17.9255 5.08789 18.0378 5.1709 18.1306C5.24902 18.2087 5.36133 18.2429 5.4248 18.1794C5.48828 18.1306 5.47363 18.0183 5.39063 17.9255C5.3125 17.8474 5.2002 17.8132 5.13672 17.8767ZM4.60938 17.4812C4.5752 17.5447 4.62402 17.6228 4.72168 17.6716C4.7998 17.7205 4.89746 17.7058 4.93164 17.6375C4.96582 17.574 4.91699 17.4958 4.81934 17.447C4.72168 17.4177 4.64355 17.4324 4.60938 17.4812ZM6.19141 19.2195C6.11328 19.283 6.14258 19.4294 6.25488 19.5222C6.36719 19.6345 6.50879 19.6492 6.57227 19.571C6.63574 19.5076 6.60645 19.3611 6.50879 19.2683C6.40137 19.156 6.25488 19.1414 6.19141 19.2195ZM5.63477 18.5017C5.55664 18.5505 5.55664 18.6775 5.63477 18.7898C5.71289 18.9021 5.84473 18.9509 5.9082 18.9021C5.98633 18.8386 5.98633 18.7117 5.9082 18.5994C5.83984 18.4871 5.71289 18.4382 5.63477 18.5017Z" fill="#1e293b"/>
</svg>
