<svg width="25" height="26" viewBox="0 0 25 26" fill="none" xmlns="http://www.w3.org/2000/svg">
<path d="M12.5 17.5359C10.5 17.5359 8.5 15.7859 7.5 15.0359C2.5 11.5359 1 10.2859 0 9.53589V20.0359C0 21.4164 1.11953 22.5359 2.5 22.5359H22.5C23.8805 22.5359 25 21.4164 25 20.0359V9.53589C24 10.2859 22.5 11.5359 17.5 15.0359C16.5 15.7859 14.5 17.5359 12.5 17.5359ZM22.5 2.53589H2.5C1.11953 2.53589 0 3.65542 0 5.03589V6.28589C2 7.78589 1.75 7.78589 9 13.0359C9.75 13.5359 11.25 15.0359 12.5 15.0359C13.75 15.0359 15.25 13.5359 16 13.2859C23.25 8.03589 23 8.03589 25 6.53589V5.03589C25 3.65542 23.8805 2.53589 22.5 2.53589Z" fill="#1e293b"/>
</svg>
