<svg width="25" height="26" viewBox="0 0 25 26" fill="none" xmlns="http://www.w3.org/2000/svg">
<path d="M22.4302 7.44392C22.446 7.66599 22.446 7.88811 22.446 8.11018C22.446 14.8836 17.2906 22.6882 7.86802 22.6882C4.96509 22.6882 2.26841 21.8474 0 20.3881C0.412451 20.4357 0.808984 20.4515 1.2373 20.4515C3.63257 20.4515 5.83755 19.6426 7.59834 18.2625C5.3458 18.2149 3.45811 16.7396 2.80771 14.7092C3.125 14.7567 3.44224 14.7885 3.77539 14.7885C4.2354 14.7885 4.69546 14.725 5.12373 14.614C2.77603 14.1381 1.01519 12.0759 1.01519 9.58543V9.522C1.69727 9.90271 2.49048 10.1406 3.33115 10.1723C1.95107 9.25227 1.04692 7.68186 1.04692 5.9052C1.04692 4.95344 1.30068 4.08098 1.74487 3.31956C4.26709 6.42869 8.05835 8.45911 12.3096 8.68123C12.2303 8.30051 12.1827 7.90398 12.1827 7.5074C12.1827 4.68376 14.4669 2.38367 17.3064 2.38367C18.7816 2.38367 20.1141 3.00232 21.05 4.00168C22.208 3.77961 23.3184 3.35129 24.302 2.76438C23.9212 3.95413 23.1122 4.95349 22.0494 5.58796C23.0805 5.47698 24.0799 5.19138 24.9999 4.79485C24.3021 5.81003 23.4295 6.71418 22.4302 7.44392V7.44392Z" fill="#1e293b"/>
</svg>
